<?xml version="1.0" encoding="UTF-8" standalone="no"?>
<svg
   xmlns:dc="http://purl.org/dc/elements/1.1/"
   xmlns:cc="http://creativecommons.org/ns#"
   xmlns:rdf="http://www.w3.org/1999/02/22-rdf-syntax-ns#"
   xmlns:svg="http://www.w3.org/2000/svg"
   xmlns="http://www.w3.org/2000/svg"
   xmlns:xlink="http://www.w3.org/1999/xlink"
   xmlns:sodipodi="http://sodipodi.sourceforge.net/DTD/sodipodi-0.dtd"
   xmlns:inkscape="http://www.inkscape.org/namespaces/inkscape"
   width="24"
   height="24"
   viewBox="0 0 24 24"
   version="1.1"
   id="svg10"
   sodipodi:docname="baseline-copyright-12px.svg"
   inkscape:version="0.92.4 (5da689c313, 2019-01-14)">
  <metadata
     id="metadata14">
    <rdf:RDF>
      <cc:Work
         rdf:about="">
        <dc:format>image/svg+xml</dc:format>
        <dc:type
           rdf:resource="http://purl.org/dc/dcmitype/StillImage" />
      </cc:Work>
    </rdf:RDF>
  </metadata>
  <sodipodi:namedview
     pagecolor="#ffffff"
     bordercolor="#666666"
     borderopacity="1"
     objecttolerance="10"
     gridtolerance="10"
     guidetolerance="10"
     inkscape:pageopacity="0"
     inkscape:pageshadow="2"
     inkscape:window-width="1920"
     inkscape:window-height="1013"
     id="namedview12"
     showgrid="false"
     inkscape:zoom="9.8333333"
     inkscape:cx="-15.305085"
     inkscape:cy="12"
     inkscape:window-x="-9"
     inkscape:window-y="-9"
     inkscape:window-maximized="1"
     inkscape:current-layer="svg10" />
  <defs
     id="defs3">
    <path
       id="a"
       d="M24 0v24H0V0h24z" />
  </defs>
  <clipPath
     id="b">
    <use
       xlink:href="#a"
       overflow="visible"
       id="use5" />
  </clipPath>
  <path
     d="m 10.08,10.86 c 0.05,-0.33 0.16,-0.62 0.3,-0.87 0.14,-0.25 0.34,-0.46 0.59,-0.62 0.24,-0.15 0.54,-0.22 0.91,-0.23 0.23,0.01 0.44,0.05 0.63,0.13 0.2,0.09 0.38,0.21 0.52,0.36 0.14,0.15 0.25,0.33 0.34,0.53 0.09,0.2 0.13,0.42 0.14,0.64 H 15.3 C 15.28,10.33 15.19,9.9 15.02,9.51 14.85,9.12 14.62,8.78 14.32,8.5 14.02,8.22 13.66,8 13.24,7.84 12.82,7.68 12.36,7.61 11.85,7.61 11.2,7.61 10.63,7.72 10.15,7.95 9.67,8.18 9.27,8.48 8.95,8.87 8.63,9.26 8.39,9.71 8.24,10.23 8.09,10.75 8,11.29 8,11.87 v 0.27 c 0,0.58 0.08,1.12 0.23,1.64 0.15,0.52 0.39,0.97 0.71,1.35 0.32,0.38 0.72,0.69 1.2,0.91 0.48,0.22 1.05,0.34 1.7,0.34 0.47,0 0.91,-0.08 1.32,-0.23 0.41,-0.15 0.77,-0.36 1.08,-0.63 0.31,-0.27 0.56,-0.58 0.74,-0.94 0.18,-0.36 0.29,-0.74 0.3,-1.15 h -1.79 c -0.01,0.21 -0.06,0.4 -0.15,0.58 -0.09,0.18 -0.21,0.33 -0.36,0.46 -0.15,0.13 -0.32,0.23 -0.52,0.3 -0.19,0.07 -0.39,0.09 -0.6,0.1 C 11.5,14.86 11.2,14.79 10.97,14.64 10.72,14.48 10.52,14.27 10.38,14.02 10.24,13.77 10.13,13.47 10.08,13.14 10.03,12.81 10,12.47 10,12.14 v -0.27 c 0,-0.35 0.03,-0.68 0.08,-1.01 z M 12,2 C 6.48,2 2,6.48 2,12 2,17.52 6.48,22 12,22 17.52,22 22,17.52 22,12 22,6.48 17.52,2 12,2 Z m 0,18 C 7.59,20 4,16.41 4,12 4,7.59 7.59,4 12,4 c 4.41,0 8,3.59 8,8 0,4.41 -3.59,8 -8,8 z"
     clip-path="url(#b)"
     id="path8"
     inkscape:connector-curvature="0"
     transform="matrix(0.6,0,0,0.59985222,-1.2,10.797036)" />
  <path
     style="opacity:1;fill:#ffffff;fill-opacity:1;fill-rule:nonzero;stroke:#1f4421;stroke-width:0.06100946;stroke-opacity:1"
     d="M 5.365426,23.933931 C 3.809988,23.700381 2.713937,23.157881 1.730512,22.1348 0.992708,21.367247 0.51828,20.549866 0.226987,19.544408 0.105293,19.124357 0.087457,18.92634 0.087457,17.995263 c 0,-0.931076 0.01784,-1.129096 0.13953,-1.549146 0.291293,-1.005457 0.765721,-1.822838 1.503525,-2.590392 0.545538,-0.567535 1.0292,-0.914204 1.755103,-1.257983 3.461311,-1.639236 7.575242,0.432465 8.354535,4.207192 0.614867,2.978339 -1.14834,5.961832 -4.067072,6.881826 -0.758024,0.238929 -1.770387,0.34286 -2.407652,0.247171 z M 7.22644,22.666685 c 0.547884,-0.145158 1.413052,-0.594765 1.866193,-0.969822 0.744437,-0.61616 1.335847,-1.556739 1.584194,-2.519496 0.170761,-0.661994 0.170761,-1.702215 0,-2.364209 C 10.322816,15.44079 9.407689,14.313746 8.141692,13.690976 7.459877,13.355575 7.023508,13.239362 6.280679,13.19535 3.942227,13.056801 1.893677,14.568102 1.304175,16.866727 c -0.148676,0.579728 -0.148676,1.677343 0,2.257071 0.494132,1.926752 1.985953,3.289519 4.000233,3.654177 0.308011,0.05578 1.566557,-0.01712 1.922032,-0.11129 z"
     id="path825"
     inkscape:connector-curvature="0" />
  <path
     style="opacity:1;fill:#ffffff;fill-opacity:1;fill-rule:nonzero;stroke:#1f4421;stroke-width:0.06100946;stroke-opacity:1"
     d="M 5.475258,20.552453 C 4.755993,20.447062 4.111552,19.932828 3.833882,19.242717 3.702828,18.916998 3.688056,18.789106 3.689797,17.995263 c 0.0023,-1.040423 0.101772,-1.383304 0.544092,-1.875149 0.616299,-0.685303 1.533546,-0.899037 2.503817,-0.583431 0.593285,0.192982 1.19043,0.97271 1.19043,1.554418 V 17.26324 H 7.442352 6.956568 l -0.06358,-0.236044 c -0.27307,-1.013878 -1.60978,-1.021885 -1.999692,-0.01198 -0.150368,0.389474 -0.149701,1.565379 9.07e-4,1.960093 0.264406,0.691999 0.995191,0.967348 1.59983,0.602794 0.194112,-0.117037 0.396609,-0.408301 0.396609,-0.570472 0,-0.0816 0.08512,-0.09734 0.526273,-0.09734 h 0.526269 l -0.03758,0.187877 c -0.0661,0.33048 -0.240408,0.628043 -0.539335,0.920763 -0.460114,0.450554 -1.142898,0.643174 -1.891213,0.533522 z"
     id="path827"
     inkscape:connector-curvature="0" />
</svg>
