<?xml version="1.0" encoding="UTF-8" standalone="no"?>
<svg
   xmlns:dc="http://purl.org/dc/elements/1.1/"
   xmlns:cc="http://creativecommons.org/ns#"
   xmlns:rdf="http://www.w3.org/1999/02/22-rdf-syntax-ns#"
   xmlns:svg="http://www.w3.org/2000/svg"
   xmlns="http://www.w3.org/2000/svg"
   xmlns:xlink="http://www.w3.org/1999/xlink"
   xmlns:sodipodi="http://sodipodi.sourceforge.net/DTD/sodipodi-0.dtd"
   xmlns:inkscape="http://www.inkscape.org/namespaces/inkscape"
   width="24"
   height="24"
   viewBox="0 0 24 24"
   version="1.1"
   id="svg10"
   sodipodi:docname="baseline-copyright-16px.svg"
   inkscape:version="0.92.4 (5da689c313, 2019-01-14)">
  <metadata
     id="metadata14">
    <rdf:RDF>
      <cc:Work
         rdf:about="">
        <dc:format>image/svg+xml</dc:format>
        <dc:type
           rdf:resource="http://purl.org/dc/dcmitype/StillImage" />
        <dc:title></dc:title>
      </cc:Work>
    </rdf:RDF>
  </metadata>
  <sodipodi:namedview
     pagecolor="#ffffff"
     bordercolor="#666666"
     borderopacity="1"
     objecttolerance="10"
     gridtolerance="10"
     guidetolerance="10"
     inkscape:pageopacity="0"
     inkscape:pageshadow="2"
     inkscape:window-width="1920"
     inkscape:window-height="1013"
     id="namedview12"
     showgrid="false"
     inkscape:zoom="9.8333333"
     inkscape:cx="-15.305085"
     inkscape:cy="12"
     inkscape:window-x="-9"
     inkscape:window-y="-9"
     inkscape:window-maximized="1"
     inkscape:current-layer="svg10" />
  <defs
     id="defs3">
    <path
       id="a"
       d="M24 0v24H0V0h24z" />
  </defs>
  <clipPath
     id="b">
    <use
       xlink:href="#a"
       overflow="visible"
       id="use5" />
  </clipPath>
  <path
     d="m 10.08,10.86 c 0.05,-0.33 0.16,-0.62 0.3,-0.87 0.14,-0.25 0.34,-0.46 0.59,-0.62 0.24,-0.15 0.54,-0.22 0.91,-0.23 0.23,0.01 0.44,0.05 0.63,0.13 0.2,0.09 0.38,0.21 0.52,0.36 0.14,0.15 0.25,0.33 0.34,0.53 0.09,0.2 0.13,0.42 0.14,0.64 H 15.3 C 15.28,10.33 15.19,9.9 15.02,9.51 14.85,9.12 14.62,8.78 14.32,8.5 14.02,8.22 13.66,8 13.24,7.84 12.82,7.68 12.36,7.61 11.85,7.61 11.2,7.61 10.63,7.72 10.15,7.95 9.67,8.18 9.27,8.48 8.95,8.87 8.63,9.26 8.39,9.71 8.24,10.23 8.09,10.75 8,11.29 8,11.87 v 0.27 c 0,0.58 0.08,1.12 0.23,1.64 0.15,0.52 0.39,0.97 0.71,1.35 0.32,0.38 0.72,0.69 1.2,0.91 0.48,0.22 1.05,0.34 1.7,0.34 0.47,0 0.91,-0.08 1.32,-0.23 0.41,-0.15 0.77,-0.36 1.08,-0.63 0.31,-0.27 0.56,-0.58 0.74,-0.94 0.18,-0.36 0.29,-0.74 0.3,-1.15 h -1.79 c -0.01,0.21 -0.06,0.4 -0.15,0.58 -0.09,0.18 -0.21,0.33 -0.36,0.46 -0.15,0.13 -0.32,0.23 -0.52,0.3 -0.19,0.07 -0.39,0.09 -0.6,0.1 C 11.5,14.86 11.2,14.79 10.97,14.64 10.72,14.48 10.52,14.27 10.38,14.02 10.24,13.77 10.13,13.47 10.08,13.14 10.03,12.81 10,12.47 10,12.14 v -0.27 c 0,-0.35 0.03,-0.68 0.08,-1.01 z M 12,2 C 6.48,2 2,6.48 2,12 2,17.52 6.48,22 12,22 17.52,22 22,17.52 22,12 22,6.48 17.52,2 12,2 Z m 0,18 C 7.59,20 4,16.41 4,12 4,7.59 7.59,4 12,4 c 4.41,0 8,3.59 8,8 0,4.41 -3.59,8 -8,8 z"
     clip-path="url(#b)"
     id="path8"
     inkscape:connector-curvature="0"
     transform="matrix(0.8,0,0,0.7995852,-1.6,6.4002698)" />
  <path
     style="opacity:1;fill:#ffffff;fill-opacity:1;fill-rule:nonzero;stroke:#1f4421;stroke-width:0.08133487;stroke-opacity:1"
     d="M 7.1539013,23.911361 C 5.079984,23.600046 3.6185827,22.87691 2.3073493,21.513173 1.3236107,20.490047 0.69104,19.400503 0.30264933,18.060257 c -0.16225866,-0.559915 -0.18604,-0.823866 -0.18604,-2.064965 0,-1.241096 0.0237867,-1.50505 0.18604,-2.064964 C 0.69104,12.590083 1.3236107,11.500539 2.3073493,10.477412 3.0347333,9.720905 3.679616,9.2588045 4.6474867,8.8005578 9.262568,6.6155045 14.747809,9.3770204 15.786867,14.40862 c 0.819822,3.970037 -1.53112,7.946944 -5.422763,9.173269 -1.0106987,0.318485 -2.360516,0.457023 -3.2102027,0.329472 z m 2.481352,-1.689201 c 0.7305117,-0.193491 1.8840697,-0.792804 2.4882577,-1.292744 0.992582,-0.821323 1.781129,-2.075086 2.112258,-3.358413 0.227682,-0.882419 0.227682,-2.269002 0,-3.151421 C 13.763755,12.590256 12.543585,11.08794 10.855589,10.257806 9.9465027,9.8107264 9.3646773,9.6558175 8.3742387,9.5971514 5.2563027,9.4124696 2.5249027,11.42699 1.7389,14.490988 c -0.1982347,0.77276 -0.1982347,2.235848 0,3.008609 0.6588427,2.568303 2.6479373,4.38483 5.333644,4.870909 0.4106813,0.07436 2.0887427,-0.02282 2.5627093,-0.148346 z"
     id="path825"
     inkscape:connector-curvature="0" />
  <path
     style="opacity:1;fill:#ffffff;fill-opacity:1;fill-rule:nonzero;stroke:#1f4421;stroke-width:0.08133487;stroke-opacity:1"
     d="M 7.300344,19.403952 C 6.341324,19.263468 5.4820693,18.57801 5.1118427,17.658112 4.937104,17.223939 4.917408,17.053462 4.9197293,15.995292 c 0.00307,-1.386852 0.135696,-1.843902 0.725456,-2.499516 0.821732,-0.913489 2.044728,-1.19839 3.3384227,-0.777698 0.7910467,0.25724 1.58724,1.296594 1.58724,2.071994 v 0.229456 H 9.923136 9.275424 l -0.084773,-0.31464 c -0.3640934,-1.351469 -2.1463734,-1.362142 -2.666256,-0.01596 -0.2004907,0.519157 -0.1996014,2.086603 0.00121,2.612746 0.3525413,0.922413 1.3269213,1.289445 2.1331067,0.803507 0.258816,-0.156008 0.528812,-0.544255 0.528812,-0.760423 0,-0.108766 0.1134933,-0.129749 0.7016973,-0.129749 h 0.701692 l -0.05011,0.250434 c -0.08813,0.440522 -0.320544,0.837164 -0.719113,1.227351 -0.6134853,0.600574 -1.523864,0.857332 -2.5216173,0.711169 z"
     id="path827"
     inkscape:connector-curvature="0" />
</svg>
