<?xml version="1.0" encoding="UTF-8" standalone="no"?>
<svg
   xmlns:dc="http://purl.org/dc/elements/1.1/"
   xmlns:cc="http://creativecommons.org/ns#"
   xmlns:rdf="http://www.w3.org/1999/02/22-rdf-syntax-ns#"
   xmlns:svg="http://www.w3.org/2000/svg"
   xmlns="http://www.w3.org/2000/svg"
   xmlns:xlink="http://www.w3.org/1999/xlink"
   xmlns:sodipodi="http://sodipodi.sourceforge.net/DTD/sodipodi-0.dtd"
   xmlns:inkscape="http://www.inkscape.org/namespaces/inkscape"
   width="24"
   height="24"
   viewBox="0 0 24 24"
   version="1.1"
   id="svg10"
   sodipodi:docname="baseline-copyright-24px.svg"
   inkscape:version="0.92.4 (5da689c313, 2019-01-14)">
  <metadata
     id="metadata14">
    <rdf:RDF>
      <cc:Work
         rdf:about="">
        <dc:format>image/svg+xml</dc:format>
        <dc:type
           rdf:resource="http://purl.org/dc/dcmitype/StillImage" />
      </cc:Work>
    </rdf:RDF>
  </metadata>
  <sodipodi:namedview
     pagecolor="#ffffff"
     bordercolor="#666666"
     borderopacity="1"
     objecttolerance="10"
     gridtolerance="10"
     guidetolerance="10"
     inkscape:pageopacity="0"
     inkscape:pageshadow="2"
     inkscape:window-width="1920"
     inkscape:window-height="1013"
     id="namedview12"
     showgrid="false"
     inkscape:zoom="9.8333333"
     inkscape:cx="14.139895"
     inkscape:cy="12"
     inkscape:window-x="-9"
     inkscape:window-y="-9"
     inkscape:window-maximized="1"
     inkscape:current-layer="svg10" />
  <defs
     id="defs3">
    <path
       id="a"
       d="M24 0v24H0V0h24z" />
  </defs>
  <clipPath
     id="b">
    <use
       xlink:href="#a"
       overflow="visible"
       id="use5" />
  </clipPath>
  <path
     d="m 10.08,10.86 c 0.05,-0.33 0.16,-0.62 0.3,-0.87 0.14,-0.25 0.34,-0.46 0.59,-0.62 0.24,-0.15 0.54,-0.22 0.91,-0.23 0.23,0.01 0.44,0.05 0.63,0.13 0.2,0.09 0.38,0.21 0.52,0.36 0.14,0.15 0.25,0.33 0.34,0.53 0.09,0.2 0.13,0.42 0.14,0.64 H 15.3 C 15.28,10.33 15.19,9.9 15.02,9.51 14.85,9.12 14.62,8.78 14.32,8.5 14.02,8.22 13.66,8 13.24,7.84 12.82,7.68 12.36,7.61 11.85,7.61 11.2,7.61 10.63,7.72 10.15,7.95 9.67,8.18 9.27,8.48 8.95,8.87 8.63,9.26 8.39,9.71 8.24,10.23 8.09,10.75 8,11.29 8,11.87 v 0.27 c 0,0.58 0.08,1.12 0.23,1.64 0.15,0.52 0.39,0.97 0.71,1.35 0.32,0.38 0.72,0.69 1.2,0.91 0.48,0.22 1.05,0.34 1.7,0.34 0.47,0 0.91,-0.08 1.32,-0.23 0.41,-0.15 0.77,-0.36 1.08,-0.63 0.31,-0.27 0.56,-0.58 0.74,-0.94 0.18,-0.36 0.29,-0.74 0.3,-1.15 h -1.79 c -0.01,0.21 -0.06,0.4 -0.15,0.58 -0.09,0.18 -0.21,0.33 -0.36,0.46 -0.15,0.13 -0.32,0.23 -0.52,0.3 -0.19,0.07 -0.39,0.09 -0.6,0.1 C 11.5,14.86 11.2,14.79 10.97,14.64 10.72,14.48 10.52,14.27 10.38,14.02 10.24,13.77 10.13,13.47 10.08,13.14 10.03,12.81 10,12.47 10,12.14 v -0.27 c 0,-0.35 0.03,-0.68 0.08,-1.01 z M 12,2 C 6.48,2 2,6.48 2,12 2,17.52 6.48,22 12,22 17.52,22 22,17.52 22,12 22,6.48 17.52,2 12,2 Z m 0,18 C 7.59,20 4,16.41 4,12 4,7.59 7.59,4 12,4 c 4.41,0 8,3.59 8,8 0,4.41 -3.59,8 -8,8 z"
     clip-path="url(#b)"
     id="path8"
     inkscape:connector-curvature="0"
     transform="matrix(1.2,0,0,1.1980282,-2.4,-2.3731472)"
     style="fill:#999999;fill-opacity:0.47677261" />
  <path
     style="opacity:1;fill:#999999;fill-opacity:0.47677261;fill-rule:nonzero;stroke:#1f4421;stroke-width:0.12193365;stroke-opacity:1"
     d="M 10.730852,23.863933 C 7.619976,23.397485 5.427874,22.314002 3.461024,20.270698 1.985416,18.737738 1.03656,17.105259 0.453974,15.097154 0.210586,14.258225 0.174914,13.862746 0.174914,12.003192 c 0,-1.85955 0.03568,-2.2550372 0.27906,-3.0939616 C 1.03656,6.9011247 1.985416,5.2686482 3.461024,3.7356838 4.5521,2.6022002 5.519424,1.9098302 6.97123,1.2232334 13.893852,-2.0506571 22.121714,2.0869545 23.6803,9.6258617 24.910034,15.574217 21.38362,21.532865 15.546156,23.370281 c -1.516048,0.477191 -3.540774,0.684763 -4.815304,0.493652 z m 3.722028,-2.530951 c 1.095768,-0.28991 2.826104,-1.187867 3.732386,-1.936934 1.488874,-1.230598 2.671694,-3.109127 3.168388,-5.03195 0.341522,-1.322138 0.341522,-3.399674 0,-4.7218118 C 20.645632,6.9013844 18.815378,4.6504464 16.283384,3.4066475 14.919754,2.7367828 14.047016,2.5046797 12.561358,2.4167798 7.884454,2.1400696 3.787354,5.1584467 2.60835,9.7492735 c -0.297352,1.1578365 -0.297352,3.3500005 0,4.5078355 0.988264,3.84812 3.971906,6.569846 8.000466,7.298142 0.616022,0.111408 3.133114,-0.0342 3.844064,-0.222269 z"
     id="path825"
     inkscape:connector-curvature="0" />
  <path
     style="opacity:1;fill:#999999;fill-opacity:0.47677261;fill-rule:nonzero;stroke:#1f4421;stroke-width:0.12193365;stroke-opacity:1"
     d="M 10.950516,17.110427 C 9.511986,16.899939 8.223104,15.872909 7.667764,14.494615 7.405656,13.844088 7.376112,13.58866 7.379594,12.003192 7.384194,9.9252531 7.583138,9.2404501 8.467778,8.2581335 9.700376,6.8894426 11.53487,6.4625721 13.475412,7.0929036 c 1.18657,0.3854235 2.38086,1.9427011 2.38086,3.1044914 v 0.343797 h -0.971568 -0.971568 l -0.12716,-0.471428 c -0.54614,-2.0249238 -3.21956,-2.0409149 -3.999384,-0.02393 -0.300736,0.777861 -0.299402,3.126385 0.00181,3.91471 0.528812,1.382065 1.990382,1.931994 3.19966,1.203904 0.388224,-0.233747 0.793218,-0.815462 0.793218,-1.139351 0,-0.162967 0.17024,-0.194409 1.052546,-0.194409 h 1.052538 l -0.07516,0.375229 c -0.1322,0.660036 -0.480816,1.254331 -1.07867,1.838952 -0.920228,0.899848 -2.285796,1.284551 -3.782426,1.065554 z"
     id="path827"
     inkscape:connector-curvature="0" />
</svg>
