<?xml version="1.0" encoding="UTF-8" standalone="no"?>
<svg
   xmlns:dc="http://purl.org/dc/elements/1.1/"
   xmlns:cc="http://creativecommons.org/ns#"
   xmlns:rdf="http://www.w3.org/1999/02/22-rdf-syntax-ns#"
   xmlns:svg="http://www.w3.org/2000/svg"
   xmlns="http://www.w3.org/2000/svg"
   xmlns:sodipodi="http://sodipodi.sourceforge.net/DTD/sodipodi-0.dtd"
   xmlns:inkscape="http://www.inkscape.org/namespaces/inkscape"
   width="24"
   height="24"
   viewBox="0 0 24 24"
   version="1.1"
   id="svg6"
   sodipodi:docname="outline-cancel-18px-rot.svg"
   inkscape:version="0.92.4 (5da689c313, 2019-01-14)">
  <metadata
     id="metadata12">
    <rdf:RDF>
      <cc:Work
         rdf:about="">
        <dc:format>image/svg+xml</dc:format>
        <dc:type
           rdf:resource="http://purl.org/dc/dcmitype/StillImage" />
        <dc:title />
      </cc:Work>
    </rdf:RDF>
  </metadata>
  <defs
     id="defs10" />
  <sodipodi:namedview
     pagecolor="#ffffff"
     bordercolor="#666666"
     borderopacity="1"
     objecttolerance="10"
     gridtolerance="10"
     guidetolerance="10"
     inkscape:pageopacity="0"
     inkscape:pageshadow="2"
     inkscape:window-width="1920"
     inkscape:window-height="1013"
     id="namedview8"
     showgrid="false"
     inkscape:zoom="55.625733"
     inkscape:cx="8.1143719"
     inkscape:cy="9.1422904"
     inkscape:window-x="-9"
     inkscape:window-y="-9"
     inkscape:window-maximized="1"
     inkscape:current-layer="svg6" />
  <path
     d="M 0,6 H 18 V 24 H 0 Z"
     id="path2"
     inkscape:connector-curvature="0"
     style="opacity:0.87000002;fill:none;stroke-width:0.75000006" />
  <path
     d="m 9,7.5000003 c -4.1474997,0 -7.4999997,3.3524977 -7.4999997,7.4999997 0,4.147497 3.3525,7.499997 7.4999997,7.499997 4.147497,0 7.499997,-3.3525 7.499997,-7.499997 0,-4.147502 -3.3525,-7.4999997 -7.499997,-7.4999997 z M 9,21.000003 C 5.6925,21.000003 2.9999997,18.3075 2.9999997,15 2.9999997,11.6925 5.6925,8.9999997 9,8.9999997 c 3.3075,0 6.000003,2.6925003 6.000003,6.0000003 0,3.3075 -2.692503,6.000003 -6.000003,6.000003 z M 11.692503,11.250001 9,13.9425 6.3074997,11.250001 5.2499997,12.3075 7.9425,15 l -2.6925003,2.692503 1.0575,1.0575 L 9,16.0575 l 2.692503,2.692503 1.0575,-1.0575 L 10.0575,15 12.750003,12.3075 Z"
     id="path4"
     inkscape:connector-curvature="0"
     style="stroke-width:0.75000006" />
  <path
     style="opacity:1;fill:#000000;fill-opacity:1;fill-rule:nonzero;stroke:#1f4421;stroke-width:0.07627124;stroke-opacity:1"
     d="M 7.9637793,22.392353 C 6.8433297,22.227985 5.5777714,21.721336 4.671495,21.074324 4.0959,20.663384 3.1590787,19.690715 2.765331,19.095187 2.3753422,18.505364 1.9972055,17.673943 1.7837337,16.936902 1.6316165,16.41171 1.6093215,16.16414 1.6093215,15 c 0,-1.164139 0.022289,-1.41171 0.1744122,-1.936906 C 2.1506245,11.796389 2.7086068,10.828891 3.630374,9.8611708 4.3375573,9.1187347 4.9294482,8.6908318 5.8570187,8.2514364 8.7604932,6.8760515 12.16359,7.5316564 14.43357,9.9037076 c 0.825353,0.8624644 1.37772,1.8418334 1.755867,3.1132434 0.277499,0.933024 0.329388,2.422164 0.119626,3.433224 -0.466898,2.25053 -1.839711,4.084899 -3.850678,5.14529 -1.384832,0.73026 -2.9985301,1.016352 -4.4946057,0.796888 z m 2.5692687,-1.551629 c 0.684859,-0.181493 1.766307,-0.743645 2.332731,-1.212591 0.930559,-0.770387 1.669824,-1.946398 1.980247,-3.150133 0.213449,-0.827704 0.213449,-2.128296 0,-2.956 C 14.403519,11.806124 13.25961,10.396971 11.677113,9.618316 10.824845,9.1989618 10.279386,9.0536596 9.3508508,8.998631 6.427783,8.8254016 3.8670964,10.714993 3.1302193,13.588984 c -0.1858449,0.72483 -0.1858449,2.097202 0,2.822032 0.6176642,2.409039 2.4824411,4.112919 5.0002912,4.568859 0.385019,0.06971 1.9582055,-0.02133 2.4025375,-0.139151 z"
     id="path4522"
     inkscape:connector-curvature="0" />
  <path
     style="opacity:1;fill:#ffffff;fill-opacity:1;fill-rule:nonzero;stroke:#1f4421;stroke-width:0.07627124;stroke-opacity:1"
     d="M 7.855371,22.320452 C 6.6265681,22.098704 5.2040741,21.451465 4.331799,20.717237 3.1973355,19.762304 2.4371775,18.647975 1.9405521,17.211872 1.69024,16.488024 1.6899842,16.485764 1.6920377,15 1.6940041,13.576968 1.703358,13.484701 1.9085493,12.864402 2.5818327,10.829076 3.9291797,9.2688776 5.793715,8.3654775 6.9753606,7.7929484 7.6269345,7.6480645 9.0076287,7.6508296 c 1.2578833,0.00259 1.7949893,0.1066375 2.8797873,0.5582341 1.6645,0.6929336 3.180362,2.1830853 3.870463,3.8047973 0.483566,1.136357 0.571532,1.606475 0.565903,3.024267 -0.0046,1.186173 -0.02286,1.354679 -0.213205,1.978356 -0.799248,2.618801 -2.722627,4.467013 -5.373474,5.16341 -0.669152,0.175792 -2.2572135,0.25325 -2.881732,0.140558 z m 2.349514,-1.367088 c 0.95312,-0.156126 2.265842,-0.855485 3.036595,-1.617751 1.277218,-1.263154 1.924502,-2.966798 1.804312,-4.748923 C 14.984372,13.675933 14.83445,13.125695 14.420694,12.292372 13.654544,10.749345 12.18789,9.5593482 10.504797,9.1151404 9.6828086,8.8981958 8.3147028,8.8997956 7.4914965,9.118666 5.1975554,9.7285588 3.4067612,11.636293 3.0158229,13.886615 c -0.134413,0.773685 -0.054163,2.24262 0.1566566,2.867621 0.689526,2.044208 2.1646024,3.482769 4.1953173,4.091539 0.6335742,0.189921 2.0146636,0.242295 2.8370882,0.107589 z"
     id="path4530"
     inkscape:connector-curvature="0" />
  <path
     style="opacity:1;fill:#ffffff;fill-opacity:1;fill-rule:nonzero;stroke:#1f4421;stroke-width:0.07627124;stroke-opacity:1"
     d="M 5.7844125,18.185087 5.3084847,17.709158 6.6614988,16.354595 8.0145135,15 6.6607763,13.644695 5.307039,12.289391 5.804217,11.796635 6.3013936,11.303872 7.6171688,12.618033 c 0.7236791,0.722801 1.3493841,1.314163 1.3904599,1.314163 0.041062,0 0.6667767,-0.591362 1.3904633,-1.314163 l 1.31577,-1.314161 0.497182,0.492763 0.497176,0.492756 -1.353733,1.355304 L 10.000739,15 l 1.353748,1.355305 1.353733,1.355303 -0.497176,0.492767 -0.497182,0.492754 -1.31577,-1.31416 C 9.6744054,16.659165 9.0479695,16.067804 9.0059898,16.067804 c -0.041984,0 -0.6590348,0.583468 -1.3712438,1.296595 -0.7122101,0.713156 -1.3128109,1.296617 -1.3346669,1.296617 -0.021865,0 -0.2539063,-0.214157 -0.5156666,-0.475929 z"
     id="path4532"
     inkscape:connector-curvature="0" />
  <path
     style="opacity:1;fill:#ff0000;fill-opacity:1;fill-rule:nonzero;stroke:#1f4421;stroke-width:0.01797729;stroke-opacity:1"
     d="M 8.0352718,22.29916 C 6.9735307,22.168654 5.3968464,21.49922 4.5183294,20.805926 3.431484,19.948226 2.6242727,18.851438 2.1119775,17.536326 1.8788122,16.937768 1.7901827,16.621001 1.7598324,16.277741 1.7342048,15.987894 1.7491312,13.715213 1.777778,13.545367 1.8212235,13.287781 1.9352202,12.904303 2.0850645,12.511673 2.6339669,11.073411 3.5749578,9.8530326 4.7862026,9.0085452 5.3658482,8.6044127 6.2492308,8.1662864 6.9054167,7.9574906 7.5129593,7.764173 8.0154945,7.7026957 8.9871674,7.7028209 c 1.2164906,1.568e-4 1.7495466,0.093527 2.6885056,0.4709174 0.533056,0.2142481 0.85822,0.3837801 1.321331,0.6889065 0.48953,0.3225329 0.835141,0.6105987 1.285488,1.0714516 0.70979,0.7263466 1.168819,1.4333096 1.551053,2.3888156 0.26905,0.672572 0.369333,1.081893 0.418419,1.707842 0.03103,0.395724 0.01298,2.094106 -0.02465,2.319071 -0.08441,0.504598 -0.371739,1.331762 -0.667413,1.921318 -0.854489,1.703803 -2.278463,2.967794 -4.084583,3.62568 -0.871808,0.31756 -1.408354,0.402037 -2.6220754,0.412833 -0.3757254,0.0033 -0.7438104,-0.0014 -0.8179668,-0.0105 z m 1.5640244,-1.239522 c 0.1631439,-0.0098 0.3653884,-0.02658 0.4494318,-0.03719 1.041628,-0.131566 2.422084,-0.850907 3.272088,-1.70505 0.959238,-0.963909 1.552506,-2.173458 1.737718,-3.542843 0.04594,-0.339681 0.04609,-1.208456 2.7e-4,-1.582001 -0.08344,-0.680248 -0.232813,-1.170768 -0.561117,-1.842672 -0.307603,-0.629539 -0.6295,-1.08846 -1.114171,-1.588451 C 12.468604,9.8175979 11.219819,9.1500852 10.049949,8.9795372 9.5283322,8.903494 8.7678686,8.888224 8.2420107,8.9432341 7.5850121,9.0119628 7.0197535,9.1773006 6.3723724,9.490102 c -1.262106,0.609824 -2.2613082,1.587961 -2.8732783,2.812704 -0.2911923,0.582766 -0.4701697,1.146432 -0.5543735,1.745926 -0.037575,0.267517 -0.031815,1.441639 0.00877,1.78874 0.057902,0.495143 0.1171452,0.774543 0.2306167,1.087626 0.5155927,1.422588 1.4223604,2.548178 2.6579304,3.299345 0.4549934,0.276614 1.1230948,0.563217 1.6105314,0.690889 0.4739922,0.12415 1.4231444,0.187954 2.1467225,0.144306 z"
     id="path827"
     inkscape:connector-curvature="0" />
  <path
     style="opacity:1;fill:#ff0000;fill-opacity:1;fill-rule:nonzero;stroke:#1f4421;stroke-width:0.01797729;stroke-opacity:1"
     d="m 10.650968,17.575341 c -1.0919794,-1.08748 -1.5518714,-1.524743 -1.6225819,-1.542742 -0.022481,-0.0057 -0.058561,0.0015 -0.080898,0.01621 -0.092575,0.06093 -0.5749702,0.52072 -1.3437586,1.280779 -1.0620801,1.050021 -1.2867486,1.267399 -1.3099035,1.267399 -0.010488,0 -0.2221003,-0.199699 -0.4702489,-0.443776 L 5.372398,17.709434 6.7262619,16.355481 8.0801257,15.001528 6.7273366,13.64865 5.3745474,12.295772 l 0.4629579,-0.461799 0.462958,-0.461798 1.0342948,1.02817 c 0.9662577,0.960536 1.5256421,1.49621 1.6265132,1.557571 0.036154,0.02199 0.049787,0.0223 0.087772,0.002 0.090575,-0.04847 0.619146,-0.554028 1.6288907,-1.557959 l 1.033694,-1.027742 0.466561,0.457189 0.466562,0.457189 -1.356393,1.356482 -1.3563922,1.356482 1.3527892,1.352878 1.352789,1.352878 -0.462958,0.462174 -0.462958,0.462174 z"
     id="path829"
     inkscape:connector-curvature="0" />
</svg>
