<?xml version="1.0" encoding="UTF-8" standalone="no"?>
<svg
   xmlns:dc="http://purl.org/dc/elements/1.1/"
   xmlns:cc="http://creativecommons.org/ns#"
   xmlns:rdf="http://www.w3.org/1999/02/22-rdf-syntax-ns#"
   xmlns:svg="http://www.w3.org/2000/svg"
   xmlns="http://www.w3.org/2000/svg"
   xmlns:sodipodi="http://sodipodi.sourceforge.net/DTD/sodipodi-0.dtd"
   xmlns:inkscape="http://www.inkscape.org/namespaces/inkscape"
   width="24"
   height="24"
   viewBox="0 0 24 24"
   version="1.1"
   id="svg6"
   sodipodi:docname="outline-cancel-24px.svg"
   inkscape:version="0.92.4 (5da689c313, 2019-01-14)">
  <metadata
     id="metadata12">
    <rdf:RDF>
      <cc:Work
         rdf:about="">
        <dc:format>image/svg+xml</dc:format>
        <dc:type
           rdf:resource="http://purl.org/dc/dcmitype/StillImage" />
      </cc:Work>
    </rdf:RDF>
  </metadata>
  <defs
     id="defs10" />
  <sodipodi:namedview
     pagecolor="#ffffff"
     bordercolor="#666666"
     borderopacity="1"
     objecttolerance="10"
     gridtolerance="10"
     guidetolerance="10"
     inkscape:pageopacity="0"
     inkscape:pageshadow="2"
     inkscape:window-width="1920"
     inkscape:window-height="1013"
     id="namedview8"
     showgrid="false"
     inkscape:zoom="9.8333333"
     inkscape:cx="-15.305085"
     inkscape:cy="12"
     inkscape:window-x="-9"
     inkscape:window-y="-9"
     inkscape:window-maximized="1"
     inkscape:current-layer="svg6" />
  <path
     d="M0 0h24v24H0V0z"
     id="path2"
     fill="none"
     opacity=".87" />
  <path
     d="M12 2C6.47 2 2 6.47 2 12s4.47 10 10 10 10-4.47 10-10S17.53 2 12 2zm0 18c-4.41 0-8-3.59-8-8s3.59-8 8-8 8 3.59 8 8-3.59 8-8 8zm3.59-13L12 10.59 8.41 7 7 8.41 10.59 12 7 15.59 8.41 17 12 13.41 15.59 17 17 15.59 13.41 12 17 8.41z"
     id="path4" />
  <path
     style="opacity:1;fill:#000000;fill-opacity:1;fill-rule:nonzero;stroke:#1f4421;stroke-width:0.10169491;stroke-opacity:1"
     d="M 10.618369,21.856476 C 9.1244397,21.637325 7.4370281,20.961785 6.2286592,20.099093 5.4612,19.55118 4.2121044,18.254268 3.6871079,17.460247 3.167122,16.673805 2.6629414,15.565244 2.3783114,14.582545 2.1754882,13.882289 2.1457627,13.552177 2.1457627,12 c 0,-1.552176 0.029726,-1.88229 0.2325487,-2.5825459 C 2.8674985,7.7285133 3.6114749,6.4385205 4.8404978,5.1482293 5.7834091,4.1583127 6.5725969,3.5877761 7.8093587,3.0019163 11.680654,1.1680664 16.218125,2.0422084 19.244769,5.2049437 c 1.100467,1.1499484 1.836952,2.4557797 2.341145,4.1509885 0.370002,1.2440248 0.439187,3.2295408 0.159509,4.5776278 -0.622538,3.000717 -2.452954,5.446531 -5.134246,6.860413 -1.846441,0.973654 -3.998034,1.355124 -5.992808,1.062503 z m 3.425699,-2.068855 c 0.913142,-0.241989 2.35508,-0.991522 3.110313,-1.616768 1.240734,-1.027187 2.226419,-2.595202 2.640325,-4.200193 0.284602,-1.103595 0.284602,-2.837725 0,-3.94132 C 19.204701,7.7414974 17.679484,5.8626265 15.569492,4.8244219 14.433125,4.2652818 13.705849,4.071546 12.467797,3.9981753 8.570377,3.7672022 5.1561287,6.2866582 4.1736253,10.118644 c -0.2477932,0.96645 -0.2477932,2.796262 0,3.762712 0.8235533,3.212044 3.3099209,5.483879 6.6670527,6.091794 0.513356,0.09296 2.610936,-0.02853 3.20339,-0.185529 z"
     id="path4522"
     inkscape:connector-curvature="0" />
  <path
     style="opacity:1;fill:#ffffff;fill-opacity:1;fill-rule:nonzero;stroke:#1f4421;stroke-width:0.10169491;stroke-opacity:1"
     d="M 10.473828,21.760593 C 8.8354244,21.464932 6.9387648,20.601958 5.7757312,19.622974 4.2631144,18.349727 3.2495705,16.863958 2.5874019,14.949153 2.2536527,13.984043 2.2533122,13.981013 2.2560497,12 2.2586718,10.102625 2.271144,9.9796034 2.5447335,9.1525424 3.4424428,6.4387667 5.238907,4.3585031 7.724953,3.1539692 9.3004806,2.3905977 10.169247,2.1974185 12.010169,2.2011068 c 1.677186,0.00336 2.393331,0.1421823 3.839714,0.7443128 2.219331,0.9239097 4.240495,2.9107779 5.160629,5.0730611 0.644749,1.5151376 0.762039,2.1419563 0.754533,4.0323663 -0.0063,1.581557 -0.03049,1.806239 -0.284281,2.6378 -1.065655,3.491741 -3.63017,5.956007 -7.164619,6.884544 -0.892214,0.234395 -3.009621,0.337667 -3.842317,0.187402 z m 3.13269,-1.822777 c 1.270827,-0.208158 3.021127,-1.140634 4.048795,-2.157 C 19.358256,16.0966 20.2213,13.825076 20.061055,11.44893 19.979159,10.234573 19.779273,9.5009182 19.227594,8.3898305 18.206066,6.332464 16.250523,4.7457989 14.006397,4.1535201 12.910405,3.8642618 11.086275,3.8663951 9.9886622,4.1582191 6.9300734,4.9714104 4.5423494,7.5150548 4.0210972,10.515471 c -0.1792176,1.031607 -0.072223,2.990153 0.2088762,3.823512 0.9193681,2.725597 2.8861367,4.643712 5.5937554,5.455378 0.8447652,0.253237 2.6862222,0.323071 3.7827892,0.143455 z"
     id="path4530"
     inkscape:connector-curvature="0" />
  <path
     style="opacity:1;fill:#ffffff;fill-opacity:1;fill-rule:nonzero;stroke:#1f4421;stroke-width:0.10169491;stroke-opacity:1"
     d="M 7.7125495,16.246787 7.0779804,15.612218 8.8819985,13.806109 10.686017,12 8.8810343,10.192926 7.0760522,8.3858518 7.7389548,7.7288416 8.4018574,7.0718313 10.156226,8.8240512 c 0.964903,0.963721 1.799177,1.7522198 1.853943,1.7522198 0.05477,0 0.889041,-0.7884988 1.853944,-1.7522198 L 15.618482,7.0718313 16.281384,7.7288416 16.944287,8.3858518 15.139305,10.192926 13.334322,12 l 1.804983,1.807074 1.804982,1.807074 -0.662903,0.65701 -0.662902,0.657011 -1.754369,-1.75222 c -0.964903,-0.963721 -1.800159,-1.75222 -1.856125,-1.75222 -0.05597,0 -0.878714,0.777966 -1.828327,1.728813 -0.9496134,0.950848 -1.7504136,1.728814 -1.7795561,1.728814 -0.029143,0 -0.3385423,-0.285556 -0.6875554,-0.634569 z"
     id="path4532"
     inkscape:connector-curvature="0" />
</svg>
