<?xml version="1.0" encoding="UTF-8" standalone="no"?>
<svg
   xmlns:dc="http://purl.org/dc/elements/1.1/"
   xmlns:cc="http://creativecommons.org/ns#"
   xmlns:rdf="http://www.w3.org/1999/02/22-rdf-syntax-ns#"
   xmlns:svg="http://www.w3.org/2000/svg"
   xmlns="http://www.w3.org/2000/svg"
   xmlns:sodipodi="http://sodipodi.sourceforge.net/DTD/sodipodi-0.dtd"
   xmlns:inkscape="http://www.inkscape.org/namespaces/inkscape"
   width="24"
   height="24"
   viewBox="0 0 24 24"
   version="1.1"
   id="svg6"
   sodipodi:docname="outline-check_circle-24px.svg"
   inkscape:version="0.92.4 (5da689c313, 2019-01-14)">
  <metadata
     id="metadata12">
    <rdf:RDF>
      <cc:Work
         rdf:about="">
        <dc:format>image/svg+xml</dc:format>
        <dc:type
           rdf:resource="http://purl.org/dc/dcmitype/StillImage" />
      </cc:Work>
    </rdf:RDF>
  </metadata>
  <defs
     id="defs10" />
  <sodipodi:namedview
     pagecolor="#ffffff"
     bordercolor="#666666"
     borderopacity="1"
     objecttolerance="10"
     gridtolerance="10"
     guidetolerance="10"
     inkscape:pageopacity="0"
     inkscape:pageshadow="2"
     inkscape:window-width="1920"
     inkscape:window-height="1013"
     id="namedview8"
     showgrid="false"
     inkscape:zoom="9.8333333"
     inkscape:cx="12"
     inkscape:cy="12"
     inkscape:window-x="-9"
     inkscape:window-y="-9"
     inkscape:window-maximized="1"
     inkscape:current-layer="svg6" />
  <path
     fill="none"
     d="M0 0h24v24H0V0z"
     id="path2" />
  <path
     d="M12 2C6.48 2 2 6.48 2 12s4.48 10 10 10 10-4.48 10-10S17.52 2 12 2zm0 18c-4.41 0-8-3.59-8-8s3.59-8 8-8 8 3.59 8 8-3.59 8-8 8zm4.59-12.42L10 14.17l-2.59-2.58L6 13l4 4 8-8z"
     id="path4" />
  <path
     style="opacity:1;fill:#ffffff;fill-opacity:1;fill-rule:nonzero;stroke:#1f4421;stroke-width:0.10169491;stroke-opacity:1"
     d="M 10.942373,21.90022 C 8.3499796,21.510871 6.5232279,20.606481 4.8841867,18.900929 3.6545128,17.621357 2.863801,16.258721 2.3783114,14.582545 2.1754882,13.882289 2.1457627,13.552177 2.1457627,12 c 0,-1.552176 0.029726,-1.88229 0.2325487,-2.5825459 C 2.863801,7.7412792 3.6545128,6.3786426 4.8841867,5.0990702 5.7934161,4.1529455 6.5995207,3.5750221 7.8093587,3.0019163 13.578215,0.26918329 20.434762,3.7228688 21.733573,10.015629 c 1.024789,4.965121 -1.913887,9.938835 -6.778445,11.472532 -1.263373,0.398316 -2.950642,0.571577 -4.012755,0.412059 z m 3.101695,-2.112599 c 0.913142,-0.241989 2.35508,-0.991522 3.110313,-1.616768 1.240734,-1.027187 2.226419,-2.595202 2.640325,-4.200193 0.284602,-1.103595 0.284602,-2.837725 0,-3.94132 C 19.204701,7.7414974 17.679484,5.8626265 15.569492,4.8244219 14.433125,4.2652818 13.705849,4.071546 12.467797,3.9981753 8.570377,3.7672022 5.1561287,6.2866582 4.1736253,10.118644 c -0.2477932,0.96645 -0.2477932,2.796262 0,3.762712 0.8235533,3.212044 3.3099209,5.483879 6.6670527,6.091794 0.513356,0.09296 2.610936,-0.02853 3.20339,-0.185529 z"
     id="path822"
     inkscape:connector-curvature="0" />
  <path
     style="opacity:1;fill:#ffffff;fill-opacity:1;fill-rule:nonzero;stroke:#1f4421;stroke-width:0.10169491;stroke-opacity:1"
     d="M 8.0166702,14.921778 6.0590251,12.9622 l 0.6627523,-0.656861 0.6627522,-0.656861 1.2968706,1.293992 1.2968706,1.293992 3.3025192,-3.303693 3.302519,-3.3036921 0.689133,0.683852 0.689133,0.6838519 -3.941316,3.9422872 c -2.167723,2.168259 -3.964856,3.942288 -3.993629,3.942288 -0.028773,0 -0.9332551,-0.88181 -2.0099598,-1.959578 z"
     id="path824"
     inkscape:connector-curvature="0" />
</svg>
