<?xml version="1.0" encoding="UTF-8" standalone="no"?>
<svg
   xmlns:dc="http://purl.org/dc/elements/1.1/"
   xmlns:cc="http://creativecommons.org/ns#"
   xmlns:rdf="http://www.w3.org/1999/02/22-rdf-syntax-ns#"
   xmlns:svg="http://www.w3.org/2000/svg"
   xmlns="http://www.w3.org/2000/svg"
   xmlns:sodipodi="http://sodipodi.sourceforge.net/DTD/sodipodi-0.dtd"
   xmlns:inkscape="http://www.inkscape.org/namespaces/inkscape"
   width="24"
   height="24"
   viewBox="0 0 24 24"
   version="1.1"
   id="svg6"
   sodipodi:docname="outline-cancel-12px.svg"
   inkscape:version="0.92.4 (5da689c313, 2019-01-14)">
  <metadata
     id="metadata12">
    <rdf:RDF>
      <cc:Work
         rdf:about="">
        <dc:format>image/svg+xml</dc:format>
        <dc:type
           rdf:resource="http://purl.org/dc/dcmitype/StillImage" />
        <dc:title></dc:title>
      </cc:Work>
    </rdf:RDF>
  </metadata>
  <defs
     id="defs10" />
  <sodipodi:namedview
     pagecolor="#ffffff"
     bordercolor="#666666"
     borderopacity="1"
     objecttolerance="10"
     gridtolerance="10"
     guidetolerance="10"
     inkscape:pageopacity="0"
     inkscape:pageshadow="2"
     inkscape:window-width="1920"
     inkscape:window-height="1013"
     id="namedview8"
     showgrid="false"
     inkscape:zoom="9.8333333"
     inkscape:cx="-15.305085"
     inkscape:cy="12"
     inkscape:window-x="-9"
     inkscape:window-y="-9"
     inkscape:window-maximized="1"
     inkscape:current-layer="svg6" />
  <path
     d="M 0,12 H 12 V 24 H 0 Z"
     id="path2"
     inkscape:connector-curvature="0"
     style="opacity:0.87000002;fill:none;stroke-width:0.50000036" />
  <path
     d="m 6,13.000001 c -2.7649987,0 -4.9999987,2.235004 -4.9999987,4.999999 0,2.764997 2.235,4.999997 4.9999987,4.999997 2.7649932,0 4.999987,-2.235 4.999987,-4.999997 0,-2.764995 -2.2349938,-4.999999 -4.999987,-4.999999 z m 0,9.000002 C 3.795,22.000003 1.9999987,20.205 1.9999987,18 1.9999987,15.795 3.795,13.999997 6,13.999997 8.205,13.999997 10.000013,15.795 10.000013,18 10.000013,20.205 8.205,22.000003 6,22.000003 Z M 7.7950074,15.499995 6,17.295 4.2049987,15.499995 l -0.705,0.705 L 5.295,18 l -1.7950013,1.795001 0.705,0.705002 L 6,18.705 7.7950074,20.500003 8.5000064,19.795001 6.705,18 8.5000064,16.204995 Z"
     id="path4"
     inkscape:connector-curvature="0"
     style="stroke-width:0.50000036" />
  <path
     style="opacity:1;fill:#000000;fill-opacity:1;fill-rule:nonzero;stroke:#1f4421;stroke-width:0.05084746;stroke-opacity:1"
     d="M 5.3091864,22.928235 C 4.5622197,22.818659 3.7185146,22.480892 3.1143301,22.049548 2.7306,21.775588 2.1060536,21.127141 1.8435539,20.730127 1.5835619,20.336904 1.3314698,19.782624 1.1891567,19.291267 1.0877455,18.941145 1.0728807,18.776093 1.0728807,18 c 0,-0.776093 0.014857,-0.941141 0.116276,-1.291267 0.2445935,-0.844474 0.6165815,-1.489472 1.2310932,-2.13462 0.4714559,-0.494955 0.8660494,-0.780222 1.4844288,-1.073155 1.9356515,-0.916926 4.2043813,-0.479855 5.7177008,1.101516 0.5502315,0.57497 0.9184815,1.227884 1.1705875,2.075496 0.184989,0.622011 0.219587,1.614771 0.07975,2.288811 -0.311258,1.50036 -1.2264656,2.723266 -2.567114,3.4302 -0.9232251,0.48684 -1.999021,0.677569 -2.9964053,0.531254 z m 1.7128458,-1.034418 c 0.4565685,-0.121005 1.1775379,-0.495767 1.5551501,-0.808387 0.6203813,-0.5136 1.1132291,-1.297608 1.3201639,-2.1001 0.1423008,-0.551798 0.1423008,-1.418863 0,-1.970664 C 9.6023395,15.870749 8.83974,14.931306 7.7847425,14.412211 7.2165641,14.132641 6.8529234,14.035771 6.2338986,13.999091 4.285189,13.883599 2.5780634,15.143335 2.0868133,17.059323 c -0.1238959,0.483222 -0.1238959,1.398128 0,1.881353 0.4117754,1.606025 1.6549606,2.741945 3.3335267,3.045905 0.2566795,0.04648 1.3054692,-0.01429 1.6016922,-0.09277 z"
     id="path4522"
     inkscape:connector-curvature="0" />
  <path
     style="opacity:1;fill:#ffffff;fill-opacity:1;fill-rule:nonzero;stroke:#1f4421;stroke-width:0.05084746;stroke-opacity:1"
     d="M 5.2369139,22.880292 C 4.4177111,22.732468 3.4693833,22.300979 2.8878659,21.811493 2.1315567,21.174865 1.6247847,20.431981 1.2937019,19.474573 1.1268272,18.99202 1.1266562,18.990508 1.1280257,18 c 0.00142,-0.948685 0.00757,-1.010201 0.1443402,-1.423734 0.4488563,-1.35688 1.3470868,-2.397005 2.5901111,-2.999285 0.7877636,-0.381681 1.2221451,-0.478275 2.1426088,-0.476432 0.8385895,0.0019 1.1966601,0.07108 1.9198588,0.372159 1.1096699,0.461958 2.1202334,1.455388 2.5803024,2.536537 0.322387,0.757569 0.381024,1.070976 0.377265,2.016176 -0.0036,0.790779 -0.01516,0.903122 -0.142123,1.318902 -0.53284,1.74587 -1.8150895,2.97801 -3.5823203,3.442272 -0.4461028,0.117195 -1.5048092,0.168834 -1.9211548,0.0937 z M 6.8032596,21.968908 C 7.4386692,21.86483 8.3138182,21.398586 8.8276507,20.890408 9.67914,20.0483 10.110661,18.912539 10.030522,17.724464 9.9895299,17.11729 9.889625,16.750461 9.6137941,16.194908 9.103025,15.166234 8.12526,14.372902 7.0031973,14.076764 6.4552047,13.932135 5.5431346,13.933197 4.9943315,14.079464 3.4650374,14.486042 2.2711741,15.757866 2.0105479,17.25807 c -0.089604,0.515786 -0.036103,1.495055 0.1044379,1.911738 0.459684,1.362789 1.4430683,2.321857 2.796879,2.727683 0.4223816,0.126623 1.3431088,0.161539 1.8913948,0.07171 z"
     id="path4530"
     inkscape:connector-curvature="0" />
  <path
     style="opacity:1;fill:#ffffff;fill-opacity:1;fill-rule:nonzero;stroke:#1f4421;stroke-width:0.05084746;stroke-opacity:1"
     d="M 3.8562753,20.12339 3.5389896,19.80611 4.4409998,18.903059 5.3430087,18 4.4405182,17.096459 3.5380261,16.19293 l 0.331452,-0.328511 0.331452,-0.328506 0.8771827,0.876108 c 0.4824533,0.481872 0.899589,0.876115 0.926973,0.876115 0.02738,0 0.4445192,-0.394243 0.9269723,-0.876115 L 7.809242,15.535913 8.1406979,15.864419 8.4721501,16.19293 7.5696595,17.096459 6.6671581,18 7.5696605,18.903539 8.4721501,19.80707 8.1406979,20.135579 7.809242,20.464089 6.9320581,19.58797 C 6.449605,19.106113 6.0319805,18.711866 6.0039936,18.711866 c -0.028001,0 -0.4393575,0.388981 -0.9141637,0.864401 -0.474805,0.475432 -0.8752075,0.864409 -0.8897763,0.864409 -0.014583,0 -0.1692715,-0.142775 -0.3437783,-0.317286 z"
     id="path4532"
     inkscape:connector-curvature="0" />
</svg>
